<svg width="24" height="24" viewBox="0 0 24 24" fill="none" xmlns="http://www.w3.org/2000/svg">
<circle  cx="12" cy="12" r="10" fill="#ffff"/>
<path d="M7.516 11.812C7.516 10.996 7.7 10.264 8.068 9.616C8.436 8.96 8.936 8.448 9.568 8.08C10.208 7.712 10.916 7.528 11.692 7.528C12.604 7.528 13.4 7.748 14.08 8.188C14.76 8.628 15.256 9.252 15.568 10.06H14.26C14.028 9.556 13.692 9.168 13.252 8.896C12.82 8.624 12.3 8.488 11.692 8.488C11.108 8.488 10.584 8.624 10.12 8.896C9.656 9.168 9.292 9.556 9.028 10.06C8.764 10.556 8.632 11.14 8.632 11.812C8.632 12.476 8.764 13.06 9.028 13.564C9.292 14.06 9.656 14.444 10.12 14.716C10.584 14.988 11.108 15.124 11.692 15.124C12.3 15.124 12.82 14.992 13.252 14.728C13.692 14.456 14.028 14.068 14.26 13.564H15.568C15.256 14.364 14.76 14.984 14.08 15.424C13.4 15.856 12.604 16.072 11.692 16.072C10.916 16.072 10.208 15.892 9.568 15.532C8.936 15.164 8.436 14.656 8.068 14.008C7.7 13.36 7.516 12.628 7.516 11.812Z" fill="#0A4D68"/>
</svg>
