<?xml version="1.0" encoding="UTF-8" standalone="no"?>
<!DOCTYPE svg PUBLIC "-//W3C//DTD SVG 1.1//EN" "http://www.w3.org/Graphics/SVG/1.1/DTD/svg11.dtd">
<svg width="100%" height="100%" viewBox="0 0 1535 457" version="1.1" xmlns="http://www.w3.org/2000/svg" xmlns:xlink="http://www.w3.org/1999/xlink" xml:space="preserve" xmlns:serif="http://www.serif.com/" style="fill-rule:evenodd;clip-rule:evenodd;stroke-linejoin:round;stroke-miterlimit:2;">
    <g transform="matrix(1,0,0,1,-192.787,-311.65)">
        <g transform="matrix(1,0,0,1,-147.982,0)">
            <g transform="matrix(1.67597,0,0,1.67597,706.349,575.589)">
                <path d="M0,-42.47C0,-41.073 -0.168,-39.68 -0.5,-38.323L-2.011,-32.139L-3.682,-25.289L-7.282,-10.56L-9.302,-2.295L-9.389,-1.942L-9.389,-1.937L-10.09,0.924C-10.499,2.596 -10.975,4.254 -11.603,5.857C-17.273,20.335 -30.781,30.946 -46.975,32.6L-102.476,32.6L-122.614,115.015C-143.651,115.015 -159.836,97.825 -159.836,77.885C-159.836,74.96 -159.492,71.975 -158.757,68.977L-149.868,32.6L-139.326,-10.56L-53.361,-10.56L-48.09,-32.139C-47.062,-36.345 -50.248,-40.404 -54.578,-40.404L-163.629,-40.404L-170.92,-10.56L-181.466,32.6L-183.234,32.6C-205.849,32.6 -222.486,11.409 -217.118,-10.56L-209.827,-40.404L-199.171,-84.022L-191.875,-113.866L-190.227,-120.602L-189.111,-125.175C-184.478,-144.142 -167.481,-157.485 -147.958,-157.485L-17.461,-157.485L-28.118,-113.866L-140.433,-113.866C-143.509,-113.866 -146.19,-111.764 -146.92,-108.775L-152.972,-84.022L-34.996,-84.022C-15.092,-80.436 0,-63.196 0,-42.47" style="fill:white;fill-rule:nonzero;"/>
            </g>
            <g transform="matrix(0.741106,0,0,0.741106,-2149.52,329.687)">
                <text x="3923.22px" y="351.661px" style="font-family:'Montserrat-SemiBold', 'Montserrat';font-weight:600;font-size:266.667px;fill:white;">F<tspan x="4089.09px " y="351.661px ">e</tspan>b</text>
                <text x="4437.89px" y="351.661px" style="font-family:'Montserrat-Bold', 'Montserrat';font-weight:700;font-size:266.667px;fill:white;">pr<tspan x="4734.42px " y="351.661px ">o</tspan>jec<tspan x="5318.95px " y="351.661px ">t</tspan></text>
            </g>
        </g>
    </g>
</svg>
