<svg width="24" height="24" viewBox="0 0 24 24" fill="none" xmlns="http://www.w3.org/2000/svg">
<g clip-path="url(#clip0_2498_3339)">
<path opacity="0.4" fill-rule="evenodd" clip-rule="evenodd" d="M21.9947 6.99863C21.9947 4.2398 19.7548 2 16.9961 2H6.99887C4.24 2 2.00024 4.2398 2.00024 6.99863V16.9959C2.00024 19.7547 4.24 21.9945 6.99887 21.9945H16.9961C19.7548 21.9945 21.9947 19.7547 21.9947 16.9959V6.99863Z" fill="#0A4D68"/>
<mask id="mask0_2498_3339" style="mask-type:luminance" maskUnits="userSpaceOnUse" x="2" y="2" width="20" height="20">
<path d="M21.9947 6.99863C21.9947 4.2398 19.7548 2 16.9961 2H6.99887C4.24 2 2.00024 4.2398 2.00024 6.99863V16.9959C2.00024 19.7547 4.24 21.9944 6.99887 21.9944H16.9961C19.7548 21.9944 21.9947 19.7547 21.9947 16.9959V6.99863Z" fill="white"/>
</mask>
<g mask="url(#mask0_2498_3339)">
<path d="M12.1191 6.47119C11.8656 6.47119 11.6167 6.48818 11.3723 6.5215V9.8048C11.6069 9.72509 11.8578 9.68196 12.1191 9.68196C13.3978 9.68196 14.4341 10.7189 14.4341 11.9969C14.4341 13.2756 13.3978 14.3126 12.1191 14.3126C11.8578 14.3126 11.6069 14.2694 11.3723 14.1897V17.473C11.6167 17.5063 11.8656 17.5233 12.1191 17.5233C15.1705 17.5233 17.6449 15.0489 17.6449 11.9969C17.6449 8.94559 15.1705 6.47119 12.1191 6.47119Z" fill="#0A4D68" fill-opacity="0.5"/>
<path d="M10.4937 10.1528V13.8118H12.827V17.9556H10.4937V23.4003H6.34924V6.0083H12.827V10.1528H10.4937Z" fill="#0A4D68"/>
</g>
</g>
<defs>
<clipPath id="clip0_2498_3339">
<rect width="20" height="20" fill="white" transform="translate(2 2)"/>
</clipPath>
</defs>
</svg>
