<svg width="24" height="24" viewBox="0 0 24 24" fill="none" xmlns="http://www.w3.org/2000/svg">
<g clip-path="url(#clip0_2501_3297)">
<path opacity="0.4" d="M14.5298 22H9.4708C5.34492 22 2.00024 18.6553 2.00024 14.5295V9.4705C2.00024 5.34468 5.34492 2 9.4708 2H14.5298C18.6556 2 22.0003 5.34468 22.0003 9.4705V14.5295C22.0003 18.6553 18.6556 22 14.5298 22Z" fill="#0A4D68"/>
<path d="M17.4262 10.9433C17.4262 11.0128 17.4178 11.0821 17.4013 11.1497L17.3261 11.4573L17.243 11.7981L17.0639 12.5309L16.9634 12.9421L16.9591 12.9597L16.9242 13.1022C16.9038 13.1854 16.8801 13.2679 16.8489 13.3477C16.5668 14.068 15.8948 14.5959 15.0891 14.6782H12.3279L11.326 18.7784C10.2793 18.7784 9.47412 17.9232 9.47412 16.9312C9.47412 16.7856 9.49124 16.6371 9.5278 16.488L9.97004 14.6782L10.4945 12.5309H14.7714L15.0336 11.4573C15.0848 11.2481 14.9263 11.0461 14.7108 11.0461H9.28541L8.92268 12.5309L8.398 14.6782H8.31004C7.18491 14.6782 6.3572 13.6239 6.62427 12.5309L6.987 11.0461L7.51715 8.87607L7.88014 7.39129L7.96213 7.05617L8.01765 6.82866C8.24815 5.88502 9.09377 5.22119 10.0651 5.22119H16.5575L16.0273 7.39129H10.4394C10.2864 7.39129 10.153 7.49587 10.1167 7.64458L9.81561 8.87607H15.6851C16.6753 9.05448 17.4262 9.91219 17.4262 10.9433Z" fill="#0A4D68"/>
</g>
<defs>
<clipPath id="clip0_2501_3297">
<rect width="20" height="20" fill="white" transform="translate(2 2)"/>
</clipPath>
</defs>
</svg>
