<svg width="24" height="24" viewBox="0 0 24 24" fill="none" xmlns="http://www.w3.org/2000/svg">
<path opacity="0.4" d="M18 2H6C3.79086 2 2 3.79086 2 6V18C2 20.2091 3.79086 22 6 22H18C20.2091 22 22 20.2091 22 18V6C22 3.79086 20.2091 2 18 2Z" fill="#0A4D68"/>
<path d="M17.8545 10.7233C17.8545 10.7928 17.8462 10.8622 17.8297 10.9297L17.7545 11.2374L17.6713 11.5783L17.4922 12.3112L17.3917 12.7225L17.3873 12.74L17.3524 12.8827C17.3321 12.9659 17.3084 13.0484 17.2772 13.1281C16.995 13.8486 16.3228 14.3766 15.517 14.4589H12.7552L11.7531 18.56C10.7063 18.56 9.90086 17.7046 9.90086 16.7124C9.90086 16.5668 9.91798 16.4183 9.95455 16.2691L10.3969 14.4589L10.9215 12.3112H15.1992L15.4615 11.2374C15.5127 11.0281 15.3541 10.8261 15.1387 10.8261H9.71212L9.34931 12.3112L8.82452 14.4589H8.73654C7.61119 14.4589 6.78331 13.4044 7.05042 12.3112L7.41324 10.8261L7.94349 8.65563L8.30655 7.17055L8.38856 6.83535L8.44409 6.60779C8.67464 5.66397 9.52044 5 10.4919 5H16.9857L16.4553 7.17055H10.8664C10.7133 7.17055 10.5799 7.27514 10.5436 7.42388L10.2424 8.65563H16.1131C17.1035 8.83407 17.8545 9.69196 17.8545 10.7233Z" fill="#0A4D68"/>
</svg>
