<?xml version="1.0" encoding="UTF-8" standalone="no"?>
<!DOCTYPE svg PUBLIC "-//W3C//DTD SVG 1.1//EN" "http://www.w3.org/Graphics/SVG/1.1/DTD/svg11.dtd">
<svg width="100%" height="100%" viewBox="0 0 1080 1080" version="1.1" xmlns="http://www.w3.org/2000/svg" xmlns:xlink="http://www.w3.org/1999/xlink" xml:space="preserve" xmlns:serif="http://www.serif.com/" style="fillRule:evenodd;clipRule:evenodd;stroke-linejoin:round;stroke-miterlimit:2;">
    <g transform="matrix(1,0,0,1,-2576,7.95808e-13)">
        <g transform="matrix(1,0,0,1,2915,339)">
            <g transform="matrix(2.68657,0,0,2.68657,-338.999,-339)">
                <g transform="matrix(1,0,0,1,251.843,0)">
                    <path d="M0,402L-101.685,402C-184.615,402 -251.843,334.772 -251.843,251.843L-251.843,150.157C-251.843,67.228 -184.615,0 -101.685,0L0,0C82.93,0 150.157,67.228 150.157,150.157L150.157,251.843C150.157,334.772 82.93,402 0,402" style="fill:rgb(9,78,105);fillRule:nonzero;"/>
                </g>
                <g transform="matrix(1,0,0,1,310.066,222.235)">
                    <path d="M0,-42.47C0,-41.073 -0.168,-39.68 -0.5,-38.323L-2.011,-32.139L-3.682,-25.289L-7.282,-10.56L-9.302,-2.295L-9.389,-1.942L-9.389,-1.937L-10.09,0.924C-10.499,2.596 -10.975,4.254 -11.603,5.857C-17.273,20.335 -30.781,30.946 -46.975,32.6L-102.476,32.6L-122.614,115.015C-143.651,115.015 -159.836,97.825 -159.836,77.885C-159.836,74.96 -159.492,71.975 -158.757,68.977L-149.868,32.6L-139.326,-10.56L-53.361,-10.56L-48.09,-32.139C-47.062,-36.345 -50.248,-40.404 -54.578,-40.404L-163.629,-40.404L-170.92,-10.56L-181.466,32.6L-183.234,32.6C-205.849,32.6 -222.486,11.409 -217.118,-10.56L-209.827,-40.404L-199.171,-84.022L-191.875,-113.866L-190.227,-120.602L-189.111,-125.175C-184.478,-144.142 -167.481,-157.485 -147.958,-157.485L-17.461,-157.485L-28.118,-113.866L-140.433,-113.866C-143.509,-113.866 -146.19,-111.764 -146.92,-108.775L-152.972,-84.022L-34.996,-84.022C-15.092,-80.436 0,-63.196 0,-42.47" style="fill:white;fillRule:nonzero;"/>
                </g>
            </g>
        </g>
    </g>
</svg>
